# xmcd
#
# Track frame offsets:
# 150
# 9850
# 22660
# 33996
# 53528
# 68689
# 82427
# 94212
# 107578
# 127003
# 144156
# 159141
# 175326
# 188629
# 202234
# 212423
# 226210
# 236796
# 250419
# 265519
# 282617
#
# Disc length: 4018 seconds
#
#
# Revision: 0
# Processed by: cddbd v1.5.1PL2 Copyright (c) Steve Scherf et al.
# Submitted via: FreeRIP 2.944 
#
DISCID=180fb015
DTITLE=Milionário and José Rico - As Melhores de Milionário e José Rico
DYEAR=1900
DGENRE=Country
TTITLE0=Estrada Da Vida
TTITLE1=Do Mundo Nada Se Leva
TTITLE2=Tropeiro
TTITLE3=Sonhei Com Você
TTITLE4=Você Agora Vai Decidir
TTITLE5=Jogo Sem Vitória
TTITLE6=O Futuro É Uma Incerteza
TTITLE7=Dê Amor Para Quem Te Ama
TTITLE8=Velho Candieiro
TTITLE9=Meu Mundo Vazio
TTITLE10=Escravo do Amor
TTITLE11=Sonho De Um Caminhoneiro
TTITLE12=Pombinha Mensageira
TTITLE13=Vá Pro Inferno Com Seu Amor
TTITLE14=Martírio De Dor
TTITLE15=Saudade De Minha Terra
TTITLE16=Filho De Ninguém
TTITLE17=A Sua Volta
TTITLE18=Paixão de Minha Vida
TTITLE19=Tudo Bem
TTITLE20=Levando a Vida
EXTD=
EXTT0=
EXTT1=
EXTT2=
EXTT3=
EXTT4=
EXTT5=
EXTT6=
EXTT7=
EXTT8=
EXTT9=
EXTT10=
EXTT11=
EXTT12=
EXTT13=
EXTT14=
EXTT15=
EXTT16=
EXTT17=
EXTT18=
EXTT19=
EXTT20=
PLAYORDER=
